<!DOCTYPE svg PUBLIC "-//W3C//DTD SVG 20010904//EN" "http://www.w3.org/TR/2001/REC-SVG-20010904/DTD/svg10.dtd">
<svg version="1.0" xmlns="http://www.w3.org/2000/svg" width="512px" height="512px" viewBox="0 0 5120 5120" preserveAspectRatio="xMidYMid meet">
<g id="layer1" fill="#062b94" stroke="none">
 <path d="M2300 5049 c-563 -57 -1094 -312 -1505 -724 -479 -478 -735 -1094 -735 -1765 0 -671 256 -1287 735 -1765 478 -479 1094 -735 1765 -735 671 0 1287 256 1765 735 479 478 735 1094 735 1765 0 671 -256 1287 -735 1765 -416 417 -942 667 -1519 724 -126 13 -381 12 -506 0z m509 -564 c577 -82 1055 -382 1372 -859 414 -625 426 -1447 29 -2088 -488 -785 -1465 -1119 -2330 -796 -757 283 -1260 1009 -1260 1818 0 725 399 1381 1045 1722 339 178 774 255 1144 203z"/>
 <path d="M2469 2896 c-56 -20 -96 -53 -126 -104 l-28 -47 0 -830 0 -830 22 -40 c42 -79 114 -125 196 -125 63 0 144 44 182 98 l30 44 3 704 2 704 576 0 c627 0 615 -1 677 58 46 44 69 98 69 164 0 77 -37 139 -106 183 l-49 30 -706 2 c-560 2 -713 0 -742 -11z"/>
 </g>

</svg>