<!DOCTYPE svg PUBLIC "-//W3C//DTD SVG 20010904//EN" "http://www.w3.org/TR/2001/REC-SVG-20010904/DTD/svg10.dtd">
<svg version="1.0" xmlns="http://www.w3.org/2000/svg" width="512px" height="512px" viewBox="0 0 5120 5120" preserveAspectRatio="xMidYMid meet">
<g id="layer1" fill="#062b94" stroke="none">
 <path d="M3341 5089 c-697 -73 -1434 -564 -2173 -1449 -530 -634 -822 -1187 -924 -1755 -15 -78 -19 -150 -18 -325 0 -252 13 -338 79 -538 85 -254 260 -515 455 -677 40 -33 120 -102 179 -153 141 -123 223 -165 325 -166 65 0 81 4 148 37 61 30 93 55 165 131 115 120 302 394 423 618 146 274 155 500 26 676 -49 67 -227 226 -363 326 -110 80 -163 151 -183 245 -47 222 111 551 469 976 410 486 735 725 988 725 116 0 178 -32 313 -165 161 -158 288 -262 365 -300 192 -95 396 -55 648 124 108 77 361 293 464 397 204 206 265 373 192 529 -38 82 -348 375 -516 488 -308 206 -679 296 -1062 256z"/>
 </g>

</svg>